<mxfile host="drawio-plugin" modified="2021-11-14T14:44:51.666Z" agent="5.0 (Windows NT 6.2; Win64; x64) AppleWebKit/537.36 (KHTML, like Gecko) Chrome/89.0.4389.114 Safari/537.36" etag="uIXTAaG0bEcJqBpnd-mf" version="14.7.4" type="embed"><diagram id="bnBKGgd5ocjBkpYhWRlp" name="Pagina-1"><mxGraphModel dx="1045" dy="743" grid="1" gridSize="10" guides="1" tooltips="1" connect="1" arrows="1" fold="1" page="1" pageScale="1" pageWidth="1169" pageHeight="827" math="0" shadow="0"><root><mxCell id="0"/><mxCell id="1" parent="0"/><mxCell id="7aMrvh8UKNZL7nqJrocs-15" style="edgeStyle=orthogonalEdgeStyle;rounded=0;orthogonalLoop=1;jettySize=auto;html=1;exitX=0.5;exitY=0;exitDx=0;exitDy=0;endArrow=none;endFill=0;" parent="1" source="7aMrvh8UKNZL7nqJrocs-1" target="7aMrvh8UKNZL7nqJrocs-11" edge="1"><mxGeometry relative="1" as="geometry"/></mxCell><mxCell id="7aMrvh8UKNZL7nqJrocs-20" value="&lt;font style=&quot;font-size: 14px&quot;&gt;&lt;b&gt;Scrive &amp;gt;&lt;/b&gt;&lt;/font&gt;" style="edgeLabel;html=1;align=center;verticalAlign=middle;resizable=0;points=[];labelBackgroundColor=none;" parent="7aMrvh8UKNZL7nqJrocs-15" vertex="1" connectable="0"><mxGeometry x="0.0629" y="-1" relative="1" as="geometry"><mxPoint x="34" y="-10" as="offset"/></mxGeometry></mxCell><mxCell id="7aMrvh8UKNZL7nqJrocs-73" value="&lt;font style=&quot;font-size: 14px&quot;&gt;&lt;b&gt;1&lt;/b&gt;&lt;/font&gt;" style="edgeLabel;html=1;align=center;verticalAlign=middle;resizable=0;points=[];" parent="7aMrvh8UKNZL7nqJrocs-15" vertex="1" connectable="0"><mxGeometry x="-0.9362" relative="1" as="geometry"><mxPoint x="5" as="offset"/></mxGeometry></mxCell><mxCell id="7aMrvh8UKNZL7nqJrocs-74" value="&lt;b&gt;&lt;font style=&quot;font-size: 14px&quot;&gt;0 .. *&lt;/font&gt;&lt;/b&gt;" style="edgeLabel;html=1;align=center;verticalAlign=middle;resizable=0;points=[];labelBackgroundColor=none;" parent="7aMrvh8UKNZL7nqJrocs-15" vertex="1" connectable="0"><mxGeometry x="0.9468" y="-1" relative="1" as="geometry"><mxPoint x="-10" y="-10" as="offset"/></mxGeometry></mxCell><mxCell id="7aMrvh8UKNZL7nqJrocs-55" value="&lt;font style=&quot;font-size: 14px&quot;&gt;&lt;b&gt;crea &amp;gt;&lt;/b&gt;&lt;/font&gt;" style="edgeStyle=orthogonalEdgeStyle;rounded=0;orthogonalLoop=1;jettySize=auto;html=1;endArrow=none;endFill=0;" parent="1" source="7aMrvh8UKNZL7nqJrocs-1" target="7aMrvh8UKNZL7nqJrocs-32" edge="1"><mxGeometry y="10" relative="1" as="geometry"><Array as="points"><mxPoint x="380" y="260"/><mxPoint x="380" y="260"/></Array><mxPoint as="offset"/></mxGeometry></mxCell><mxCell id="7aMrvh8UKNZL7nqJrocs-75" value="&lt;b&gt;&lt;font style=&quot;font-size: 14px&quot;&gt;1&lt;/font&gt;&lt;/b&gt;" style="edgeLabel;html=1;align=center;verticalAlign=middle;resizable=0;points=[];" parent="7aMrvh8UKNZL7nqJrocs-55" vertex="1" connectable="0"><mxGeometry x="-0.9394" relative="1" as="geometry"><mxPoint y="-10" as="offset"/></mxGeometry></mxCell><mxCell id="7aMrvh8UKNZL7nqJrocs-76" value="&lt;b&gt;&lt;font style=&quot;font-size: 14px&quot;&gt;0 .. *&lt;/font&gt;&lt;/b&gt;" style="edgeLabel;html=1;align=center;verticalAlign=middle;resizable=0;points=[];labelBackgroundColor=none;" parent="7aMrvh8UKNZL7nqJrocs-55" vertex="1" connectable="0"><mxGeometry x="0.9333" y="2" relative="1" as="geometry"><mxPoint x="-9" y="-8" as="offset"/></mxGeometry></mxCell><mxCell id="7aMrvh8UKNZL7nqJrocs-59" style="edgeStyle=orthogonalEdgeStyle;rounded=0;orthogonalLoop=1;jettySize=auto;html=1;endArrow=none;endFill=0;" parent="1" source="7aMrvh8UKNZL7nqJrocs-1" target="7aMrvh8UKNZL7nqJrocs-23" edge="1"><mxGeometry relative="1" as="geometry"><Array as="points"><mxPoint x="310" y="369"/><mxPoint x="310" y="369"/></Array></mxGeometry></mxCell><mxCell id="7aMrvh8UKNZL7nqJrocs-60" value="&lt;b&gt;&lt;font style=&quot;font-size: 14px&quot;&gt;da &amp;gt;&lt;/font&gt;&lt;/b&gt;" style="edgeLabel;html=1;align=center;verticalAlign=middle;resizable=0;points=[];" parent="7aMrvh8UKNZL7nqJrocs-59" vertex="1" connectable="0"><mxGeometry x="0.4" y="2" relative="1" as="geometry"><mxPoint x="-23" y="-11" as="offset"/></mxGeometry></mxCell><mxCell id="7aMrvh8UKNZL7nqJrocs-78" value="&lt;b&gt;&lt;font style=&quot;font-size: 14px&quot;&gt;1&lt;/font&gt;&lt;/b&gt;" style="edgeLabel;html=1;align=center;verticalAlign=middle;resizable=0;points=[];labelBackgroundColor=none;" parent="7aMrvh8UKNZL7nqJrocs-59" vertex="1" connectable="0"><mxGeometry x="-0.7556" y="-2" relative="1" as="geometry"><mxPoint x="-1" y="9" as="offset"/></mxGeometry></mxCell><mxCell id="7aMrvh8UKNZL7nqJrocs-79" value="&lt;b&gt;&lt;font style=&quot;font-size: 14px&quot;&gt;0 .. *&lt;/font&gt;&lt;/b&gt;" style="edgeLabel;html=1;align=center;verticalAlign=middle;resizable=0;points=[];labelBackgroundColor=none;" parent="7aMrvh8UKNZL7nqJrocs-59" vertex="1" connectable="0"><mxGeometry x="0.7778" relative="1" as="geometry"><mxPoint x="-10" y="11" as="offset"/></mxGeometry></mxCell><mxCell id="7aMrvh8UKNZL7nqJrocs-1" value="User" style="swimlane;fontStyle=0;childLayout=stackLayout;horizontal=1;startSize=26;horizontalStack=0;resizeParent=1;resizeParentMax=0;resizeLast=0;collapsible=1;marginBottom=0;" parent="1" vertex="1"><mxGeometry x="90" y="240" width="170" height="182" as="geometry"><mxRectangle x="90" y="240" width="60" height="26" as="alternateBounds"/></mxGeometry></mxCell><mxCell id="7aMrvh8UKNZL7nqJrocs-2" value="- nome" style="text;align=left;verticalAlign=top;spacingLeft=4;spacingRight=4;overflow=hidden;rotatable=0;points=[[0,0.5],[1,0.5]];portConstraint=eastwest;" parent="7aMrvh8UKNZL7nqJrocs-1" vertex="1"><mxGeometry y="26" width="170" height="26" as="geometry"/></mxCell><mxCell id="7aMrvh8UKNZL7nqJrocs-3" value="- cognome" style="text;align=left;verticalAlign=top;spacingLeft=4;spacingRight=4;overflow=hidden;rotatable=0;points=[[0,0.5],[1,0.5]];portConstraint=eastwest;" parent="7aMrvh8UKNZL7nqJrocs-1" vertex="1"><mxGeometry y="52" width="170" height="26" as="geometry"/></mxCell><mxCell id="7aMrvh8UKNZL7nqJrocs-4" value="- email" style="text;align=left;verticalAlign=top;spacingLeft=4;spacingRight=4;overflow=hidden;rotatable=0;points=[[0,0.5],[1,0.5]];portConstraint=eastwest;" parent="7aMrvh8UKNZL7nqJrocs-1" vertex="1"><mxGeometry y="78" width="170" height="26" as="geometry"/></mxCell><mxCell id="7aMrvh8UKNZL7nqJrocs-6" value="- password" style="text;align=left;verticalAlign=top;spacingLeft=4;spacingRight=4;overflow=hidden;rotatable=0;points=[[0,0.5],[1,0.5]];portConstraint=eastwest;" parent="7aMrvh8UKNZL7nqJrocs-1" vertex="1"><mxGeometry y="104" width="170" height="26" as="geometry"/></mxCell><mxCell id="7aMrvh8UKNZL7nqJrocs-8" value="- fotoProfilo" style="text;align=left;verticalAlign=top;spacingLeft=4;spacingRight=4;overflow=hidden;rotatable=0;points=[[0,0.5],[1,0.5]];portConstraint=eastwest;" parent="7aMrvh8UKNZL7nqJrocs-1" vertex="1"><mxGeometry y="130" width="170" height="26" as="geometry"/></mxCell><mxCell id="7aMrvh8UKNZL7nqJrocs-9" value="- corsoStudio" style="text;align=left;verticalAlign=top;spacingLeft=4;spacingRight=4;overflow=hidden;rotatable=0;points=[[0,0.5],[1,0.5]];portConstraint=eastwest;" parent="7aMrvh8UKNZL7nqJrocs-1" vertex="1"><mxGeometry y="156" width="170" height="26" as="geometry"/></mxCell><mxCell id="7aMrvh8UKNZL7nqJrocs-10" value="Messaggio" style="swimlane;fontStyle=0;childLayout=stackLayout;horizontal=1;startSize=26;horizontalStack=0;resizeParent=1;resizeParentMax=0;resizeLast=0;collapsible=1;marginBottom=0;" parent="1" vertex="1"><mxGeometry x="420" y="70" width="160" height="78" as="geometry"/></mxCell><mxCell id="7aMrvh8UKNZL7nqJrocs-11" value="- testo" style="text;strokeColor=none;align=left;verticalAlign=top;spacingLeft=4;spacingRight=4;overflow=hidden;rotatable=0;points=[[0,0.5],[1,0.5]];portConstraint=eastwest;" parent="7aMrvh8UKNZL7nqJrocs-10" vertex="1"><mxGeometry y="26" width="160" height="26" as="geometry"/></mxCell><mxCell id="7aMrvh8UKNZL7nqJrocs-12" value="- data" style="text;strokeColor=none;align=left;verticalAlign=top;spacingLeft=4;spacingRight=4;overflow=hidden;rotatable=0;points=[[0,0.5],[1,0.5]];portConstraint=eastwest;" parent="7aMrvh8UKNZL7nqJrocs-10" vertex="1"><mxGeometry y="52" width="160" height="26" as="geometry"/></mxCell><mxCell id="7aMrvh8UKNZL7nqJrocs-22" value="Risposta" style="swimlane;fontStyle=0;childLayout=stackLayout;horizontal=1;startSize=26;horizontalStack=0;resizeParent=1;resizeParentMax=0;resizeLast=0;collapsible=1;marginBottom=0;" parent="1" vertex="1"><mxGeometry x="350" y="330" width="160" height="78" as="geometry"/></mxCell><mxCell id="7aMrvh8UKNZL7nqJrocs-23" value="- testo" style="text;strokeColor=none;align=left;verticalAlign=top;spacingLeft=4;spacingRight=4;overflow=hidden;rotatable=0;points=[[0,0.5],[1,0.5]];portConstraint=eastwest;" parent="7aMrvh8UKNZL7nqJrocs-22" vertex="1"><mxGeometry y="26" width="160" height="26" as="geometry"/></mxCell><mxCell id="7aMrvh8UKNZL7nqJrocs-24" value="- data" style="text;strokeColor=none;align=left;verticalAlign=top;spacingLeft=4;spacingRight=4;overflow=hidden;rotatable=0;points=[[0,0.5],[1,0.5]];portConstraint=eastwest;" parent="7aMrvh8UKNZL7nqJrocs-22" vertex="1"><mxGeometry y="52" width="160" height="26" as="geometry"/></mxCell><mxCell id="7aMrvh8UKNZL7nqJrocs-65" style="edgeStyle=orthogonalEdgeStyle;rounded=0;orthogonalLoop=1;jettySize=auto;html=1;endArrow=none;endFill=0;" parent="1" source="7aMrvh8UKNZL7nqJrocs-28" target="7aMrvh8UKNZL7nqJrocs-32" edge="1"><mxGeometry relative="1" as="geometry"><Array as="points"><mxPoint x="750" y="380"/><mxPoint x="670" y="380"/></Array></mxGeometry></mxCell><mxCell id="7aMrvh8UKNZL7nqJrocs-66" value="&lt;font style=&quot;font-size: 14px&quot;&gt;&lt;b&gt;ha &amp;gt;&lt;/b&gt;&lt;/font&gt;" style="edgeLabel;html=1;align=center;verticalAlign=middle;resizable=0;points=[];" parent="7aMrvh8UKNZL7nqJrocs-65" vertex="1" connectable="0"><mxGeometry x="0.0054" y="1" relative="1" as="geometry"><mxPoint x="-2" y="-11" as="offset"/></mxGeometry></mxCell><mxCell id="FtUAw6zp2ulC7SrXqxyj-3" value="&lt;font style=&quot;font-size: 14px&quot;&gt;&lt;b&gt;1&lt;/b&gt;&lt;/font&gt;" style="edgeLabel;html=1;align=center;verticalAlign=middle;resizable=0;points=[];" parent="7aMrvh8UKNZL7nqJrocs-65" vertex="1" connectable="0"><mxGeometry x="0.8919" y="1" relative="1" as="geometry"><mxPoint x="11" as="offset"/></mxGeometry></mxCell><mxCell id="FtUAw6zp2ulC7SrXqxyj-4" value="&lt;b&gt;&lt;font style=&quot;font-size: 14px&quot;&gt;1&lt;/font&gt;&lt;/b&gt;" style="edgeLabel;html=1;align=center;verticalAlign=middle;resizable=0;points=[];" parent="7aMrvh8UKNZL7nqJrocs-65" vertex="1" connectable="0"><mxGeometry x="-0.8595" relative="1" as="geometry"><mxPoint x="10" as="offset"/></mxGeometry></mxCell><mxCell id="7aMrvh8UKNZL7nqJrocs-67" style="edgeStyle=orthogonalEdgeStyle;rounded=0;orthogonalLoop=1;jettySize=auto;html=1;endArrow=none;endFill=0;" parent="1" source="7aMrvh8UKNZL7nqJrocs-28" target="7aMrvh8UKNZL7nqJrocs-1" edge="1"><mxGeometry relative="1" as="geometry"><Array as="points"><mxPoint x="240" y="461"/></Array></mxGeometry></mxCell><mxCell id="7aMrvh8UKNZL7nqJrocs-68" value="&lt;b&gt;&lt;font style=&quot;font-size: 14px&quot;&gt;esprime &amp;gt;&lt;/font&gt;&lt;/b&gt;" style="edgeLabel;html=1;align=center;verticalAlign=middle;resizable=0;points=[];" parent="7aMrvh8UKNZL7nqJrocs-67" vertex="1" connectable="0"><mxGeometry x="-0.0109" y="-3" relative="1" as="geometry"><mxPoint y="12" as="offset"/></mxGeometry></mxCell><mxCell id="FtUAw6zp2ulC7SrXqxyj-5" value="&lt;b&gt;&lt;font style=&quot;font-size: 14px&quot;&gt;0 .. *&lt;/font&gt;&lt;/b&gt;" style="edgeLabel;html=1;align=center;verticalAlign=middle;resizable=0;points=[];" parent="7aMrvh8UKNZL7nqJrocs-67" vertex="1" connectable="0"><mxGeometry x="0.8721" y="3" relative="1" as="geometry"><mxPoint x="23" y="-22" as="offset"/></mxGeometry></mxCell><mxCell id="FtUAw6zp2ulC7SrXqxyj-6" value="&lt;b&gt;&lt;font style=&quot;font-size: 14px&quot;&gt;0 .. 1&lt;/font&gt;&lt;/b&gt;" style="edgeLabel;html=1;align=center;verticalAlign=middle;resizable=0;points=[];" parent="7aMrvh8UKNZL7nqJrocs-67" vertex="1" connectable="0"><mxGeometry x="-0.8891" y="1" relative="1" as="geometry"><mxPoint x="6" y="8" as="offset"/></mxGeometry></mxCell><mxCell id="7aMrvh8UKNZL7nqJrocs-28" value="Valutazione" style="swimlane;fontStyle=0;childLayout=stackLayout;horizontal=1;startSize=26;horizontalStack=0;resizeParent=1;resizeParentMax=0;resizeLast=0;collapsible=1;marginBottom=0;" parent="1" vertex="1"><mxGeometry x="670" y="435" width="160" height="52" as="geometry"/></mxCell><mxCell id="7aMrvh8UKNZL7nqJrocs-29" value="- valore" style="text;strokeColor=none;align=left;verticalAlign=top;spacingLeft=4;spacingRight=4;overflow=hidden;rotatable=0;points=[[0,0.5],[1,0.5]];portConstraint=eastwest;" parent="7aMrvh8UKNZL7nqJrocs-28" vertex="1"><mxGeometry y="26" width="160" height="26" as="geometry"/></mxCell><mxCell id="7aMrvh8UKNZL7nqJrocs-61" style="edgeStyle=orthogonalEdgeStyle;rounded=0;orthogonalLoop=1;jettySize=auto;html=1;endArrow=none;endFill=0;" parent="1" source="7aMrvh8UKNZL7nqJrocs-32" target="7aMrvh8UKNZL7nqJrocs-22" edge="1"><mxGeometry relative="1" as="geometry"><Array as="points"><mxPoint x="650" y="379"/></Array></mxGeometry></mxCell><mxCell id="7aMrvh8UKNZL7nqJrocs-62" value="&lt;font style=&quot;font-size: 14px&quot;&gt;&lt;b&gt;&amp;lt; contiene&lt;/b&gt;&lt;/font&gt;" style="edgeLabel;html=1;align=center;verticalAlign=middle;resizable=0;points=[];" parent="7aMrvh8UKNZL7nqJrocs-61" vertex="1" connectable="0"><mxGeometry x="0.2391" relative="1" as="geometry"><mxPoint x="3" y="-10" as="offset"/></mxGeometry></mxCell><mxCell id="7aMrvh8UKNZL7nqJrocs-80" value="&lt;font style=&quot;font-size: 14px&quot;&gt;&lt;b&gt;0 .. *&lt;/b&gt;&lt;/font&gt;" style="edgeLabel;html=1;align=center;verticalAlign=middle;resizable=0;points=[];" parent="7aMrvh8UKNZL7nqJrocs-61" vertex="1" connectable="0"><mxGeometry x="0.873" y="-2" relative="1" as="geometry"><mxPoint x="8" y="13" as="offset"/></mxGeometry></mxCell><mxCell id="7aMrvh8UKNZL7nqJrocs-81" value="&lt;b&gt;&lt;font style=&quot;font-size: 14px&quot;&gt;1&lt;/font&gt;&lt;/b&gt;" style="edgeLabel;html=1;align=center;verticalAlign=middle;resizable=0;points=[];" parent="7aMrvh8UKNZL7nqJrocs-61" vertex="1" connectable="0"><mxGeometry x="-0.8836" y="-1" relative="1" as="geometry"><mxPoint x="-9" as="offset"/></mxGeometry></mxCell><mxCell id="7aMrvh8UKNZL7nqJrocs-69" style="edgeStyle=orthogonalEdgeStyle;rounded=0;orthogonalLoop=1;jettySize=auto;html=1;endArrow=none;endFill=0;" parent="1" source="7aMrvh8UKNZL7nqJrocs-32" target="7aMrvh8UKNZL7nqJrocs-39" edge="1"><mxGeometry relative="1" as="geometry"/></mxCell><mxCell id="7aMrvh8UKNZL7nqJrocs-70" value="&lt;b&gt;&lt;font style=&quot;font-size: 14px&quot;&gt;appartiene &amp;gt;&lt;/font&gt;&lt;/b&gt;" style="edgeLabel;html=1;align=center;verticalAlign=middle;resizable=0;points=[];" parent="7aMrvh8UKNZL7nqJrocs-69" vertex="1" connectable="0"><mxGeometry x="0.2462" y="2" relative="1" as="geometry"><mxPoint x="-11" y="-11" as="offset"/></mxGeometry></mxCell><mxCell id="FtUAw6zp2ulC7SrXqxyj-1" value="&lt;font style=&quot;font-size: 14px&quot;&gt;&lt;b&gt;0 .. *&lt;/b&gt;&lt;/font&gt;" style="edgeLabel;html=1;align=center;verticalAlign=middle;resizable=0;points=[];" parent="7aMrvh8UKNZL7nqJrocs-69" vertex="1" connectable="0"><mxGeometry x="-0.8154" y="1" relative="1" as="geometry"><mxPoint x="8" y="16" as="offset"/></mxGeometry></mxCell><mxCell id="FtUAw6zp2ulC7SrXqxyj-2" value="&lt;font style=&quot;font-size: 14px&quot;&gt;&lt;b&gt;1&lt;/b&gt;&lt;/font&gt;" style="edgeLabel;html=1;align=center;verticalAlign=middle;resizable=0;points=[];" parent="7aMrvh8UKNZL7nqJrocs-69" vertex="1" connectable="0"><mxGeometry x="0.8154" y="-2" relative="1" as="geometry"><mxPoint y="13" as="offset"/></mxGeometry></mxCell><mxCell id="7aMrvh8UKNZL7nqJrocs-32" value="Thread" style="swimlane;fontStyle=0;childLayout=stackLayout;horizontal=1;startSize=26;horizontalStack=0;resizeParent=1;resizeParentMax=0;resizeLast=0;collapsible=1;marginBottom=0;" parent="1" vertex="1"><mxGeometry x="590" y="200" width="160" height="130" as="geometry"><mxRectangle x="240" y="110" width="60" height="26" as="alternateBounds"/></mxGeometry></mxCell><mxCell id="7aMrvh8UKNZL7nqJrocs-33" value="- titolo" style="text;align=left;verticalAlign=top;spacingLeft=4;spacingRight=4;overflow=hidden;rotatable=0;points=[[0,0.5],[1,0.5]];portConstraint=eastwest;" parent="7aMrvh8UKNZL7nqJrocs-32" vertex="1"><mxGeometry y="26" width="160" height="26" as="geometry"/></mxCell><mxCell id="7aMrvh8UKNZL7nqJrocs-34" value="- testo" style="text;align=left;verticalAlign=top;spacingLeft=4;spacingRight=4;overflow=hidden;rotatable=0;points=[[0,0.5],[1,0.5]];portConstraint=eastwest;" parent="7aMrvh8UKNZL7nqJrocs-32" vertex="1"><mxGeometry y="52" width="160" height="26" as="geometry"/></mxCell><mxCell id="7aMrvh8UKNZL7nqJrocs-35" value="- data" style="text;align=left;verticalAlign=top;spacingLeft=4;spacingRight=4;overflow=hidden;rotatable=0;points=[[0,0.5],[1,0.5]];portConstraint=eastwest;" parent="7aMrvh8UKNZL7nqJrocs-32" vertex="1"><mxGeometry y="78" width="160" height="26" as="geometry"/></mxCell><mxCell id="7aMrvh8UKNZL7nqJrocs-36" value="- allegati" style="text;align=left;verticalAlign=top;spacingLeft=4;spacingRight=4;overflow=hidden;rotatable=0;points=[[0,0.5],[1,0.5]];portConstraint=eastwest;" parent="7aMrvh8UKNZL7nqJrocs-32" vertex="1"><mxGeometry y="104" width="160" height="26" as="geometry"/></mxCell><mxCell id="7aMrvh8UKNZL7nqJrocs-39" value="Categoria" style="swimlane;fontStyle=0;childLayout=stackLayout;horizontal=1;startSize=26;horizontalStack=0;resizeParent=1;resizeParentMax=0;resizeLast=0;collapsible=1;marginBottom=0;" parent="1" vertex="1"><mxGeometry x="880" y="213" width="160" height="104" as="geometry"><mxRectangle x="240" y="110" width="60" height="26" as="alternateBounds"/></mxGeometry></mxCell><mxCell id="7aMrvh8UKNZL7nqJrocs-40" value="- nome" style="text;align=left;verticalAlign=top;spacingLeft=4;spacingRight=4;overflow=hidden;rotatable=0;points=[[0,0.5],[1,0.5]];portConstraint=eastwest;" parent="7aMrvh8UKNZL7nqJrocs-39" vertex="1"><mxGeometry y="26" width="160" height="26" as="geometry"/></mxCell><mxCell id="7aMrvh8UKNZL7nqJrocs-41" value="- icona" style="text;align=left;verticalAlign=top;spacingLeft=4;spacingRight=4;overflow=hidden;rotatable=0;points=[[0,0.5],[1,0.5]];portConstraint=eastwest;" parent="7aMrvh8UKNZL7nqJrocs-39" vertex="1"><mxGeometry y="52" width="160" height="26" as="geometry"/></mxCell><mxCell id="7aMrvh8UKNZL7nqJrocs-42" value="- descrizione" style="text;align=left;verticalAlign=top;spacingLeft=4;spacingRight=4;overflow=hidden;rotatable=0;points=[[0,0.5],[1,0.5]];portConstraint=eastwest;" parent="7aMrvh8UKNZL7nqJrocs-39" vertex="1"><mxGeometry y="78" width="160" height="26" as="geometry"/></mxCell><mxCell id="7aMrvh8UKNZL7nqJrocs-53" style="edgeStyle=orthogonalEdgeStyle;rounded=0;orthogonalLoop=1;jettySize=auto;html=1;endArrow=block;endFill=0;" parent="1" source="7aMrvh8UKNZL7nqJrocs-47" target="7aMrvh8UKNZL7nqJrocs-1" edge="1"><mxGeometry relative="1" as="geometry"><mxPoint x="180" y="420" as="targetPoint"/><Array as="points"><mxPoint x="180" y="450"/><mxPoint x="180" y="450"/></Array></mxGeometry></mxCell><mxCell id="7aMrvh8UKNZL7nqJrocs-71" style="edgeStyle=orthogonalEdgeStyle;rounded=0;orthogonalLoop=1;jettySize=auto;html=1;endArrow=none;endFill=0;" parent="1" source="7aMrvh8UKNZL7nqJrocs-47" target="7aMrvh8UKNZL7nqJrocs-39" edge="1"><mxGeometry relative="1" as="geometry"/></mxCell><mxCell id="7aMrvh8UKNZL7nqJrocs-72" value="&lt;font style=&quot;font-size: 14px&quot;&gt;&lt;b&gt;monitora &amp;gt;&lt;/b&gt;&lt;/font&gt;" style="edgeLabel;html=1;align=center;verticalAlign=middle;resizable=0;points=[];" parent="7aMrvh8UKNZL7nqJrocs-71" vertex="1" connectable="0"><mxGeometry x="-0.2128" y="1" relative="1" as="geometry"><mxPoint x="-47" y="-13" as="offset"/></mxGeometry></mxCell><mxCell id="FtUAw6zp2ulC7SrXqxyj-8" value="&lt;b&gt;&lt;font style=&quot;font-size: 14px&quot;&gt;1&lt;/font&gt;&lt;/b&gt;" style="edgeLabel;html=1;align=center;verticalAlign=middle;resizable=0;points=[];" parent="7aMrvh8UKNZL7nqJrocs-71" vertex="1" connectable="0"><mxGeometry x="-0.9669" relative="1" as="geometry"><mxPoint x="-5" y="-14" as="offset"/></mxGeometry></mxCell><mxCell id="FtUAw6zp2ulC7SrXqxyj-9" value="&lt;b&gt;&lt;font style=&quot;font-size: 14px&quot;&gt;1&lt;/font&gt;&lt;/b&gt;" style="edgeLabel;html=1;align=center;verticalAlign=middle;resizable=0;points=[];" parent="7aMrvh8UKNZL7nqJrocs-71" vertex="1" connectable="0"><mxGeometry x="0.9669" y="-1" relative="1" as="geometry"><mxPoint x="9" as="offset"/></mxGeometry></mxCell><mxCell id="7aMrvh8UKNZL7nqJrocs-47" value="Moderatore" style="swimlane;fontStyle=0;childLayout=stackLayout;horizontal=1;startSize=26;horizontalStack=0;resizeParent=1;resizeParentMax=0;resizeLast=0;collapsible=1;marginBottom=0;labelBackgroundColor=none;" parent="1" vertex="1"><mxGeometry x="90" y="508" width="180" height="52" as="geometry"><mxRectangle x="90" y="508" width="90" height="26" as="alternateBounds"/></mxGeometry></mxCell><mxCell id="7aMrvh8UKNZL7nqJrocs-54" style="edgeStyle=orthogonalEdgeStyle;rounded=0;orthogonalLoop=1;jettySize=auto;html=1;entryX=0.5;entryY=1;entryDx=0;entryDy=0;endArrow=block;endFill=0;" parent="1" source="7aMrvh8UKNZL7nqJrocs-51" target="7aMrvh8UKNZL7nqJrocs-47" edge="1"><mxGeometry relative="1" as="geometry"/></mxCell><mxCell id="7aMrvh8UKNZL7nqJrocs-51" value="Admin" style="swimlane;fontStyle=0;childLayout=stackLayout;horizontal=1;startSize=26;horizontalStack=0;resizeParent=1;resizeParentMax=0;resizeLast=0;collapsible=1;marginBottom=0;labelBackgroundColor=none;" parent="1" vertex="1"><mxGeometry x="90" y="630" width="180" height="52" as="geometry"><mxRectangle x="90" y="630" width="90" height="26" as="alternateBounds"/></mxGeometry></mxCell></root></mxGraphModel></diagram></mxfile>